<svg xmlns="http://www.w3.org/2000/svg" viewBox="0 0 64 64" width="64" height="64"><circle cx="32" cy="23" r="8.5" fill="#E3A47E"/><line x1="21.6" y1="17.0" x2="17.7" y2="14.8" stroke="#E3A47E" stroke-width="2.4" stroke-linecap="round"/><line x1="26.0" y1="12.6" x2="23.8" y2="8.7" stroke="#E3A47E" stroke-width="2.4" stroke-linecap="round"/><line x1="32.0" y1="11.0" x2="32.0" y2="6.5" stroke="#E3A47E" stroke-width="2.4" stroke-linecap="round"/><line x1="38.0" y1="12.6" x2="40.2" y2="8.7" stroke="#E3A47E" stroke-width="2.4" stroke-linecap="round"/><line x1="42.4" y1="17.0" x2="46.3" y2="14.8" stroke="#E3A47E" stroke-width="2.4" stroke-linecap="round"/><path d="M32 60 C32 52 32 44 32 36" stroke="#5E7458" stroke-width="2.6" stroke-linecap="round" fill="none"/><path d="M32 52 C20 53 11 45 9 32 C22 31 31 39 32 52 Z" fill="#71896C"/><path d="M32 47 C44 48 54 39 56 26 C42 26 33 34 32 47 Z" fill="#8FA77F"/><path d="M31 50 C24 45 18 40 13 34" stroke="#5E7458" stroke-width="1.1" fill="none" opacity=".45"/><path d="M33 45 C40 40 46 35 52 29" stroke="#5E7458" stroke-width="1.1" fill="none" opacity=".45"/></svg>
