<svg xmlns="http://www.w3.org/2000/svg" viewBox="0 0 360 190" width="360" height="190"><path d="M212 0 L318 0 L360 190 L250 190 Z" fill="#F3F4EC" opacity=".9"/><rect x="196" y="-6" width="118" height="128" rx="4" fill="#EFF1E7" stroke="#DCD3C1" stroke-width="5"/><line x1="255" y1="-6" x2="255" y2="122" stroke="#DCD3C1" stroke-width="4"/><line x1="196" y1="56" x2="314" y2="56" stroke="#DCD3C1" stroke-width="4"/><rect x="150" y="122" width="210" height="9" rx="3" fill="#DCD3C1"/><rect x="156" y="131" width="198" height="5" rx="2" fill="#E8E2D3"/><path d="M160 100 L196 100 L191 122 L165 122 Z" fill="#C77D59"/><rect x="157" y="96" width="42" height="7" rx="2" fill="#B06C4B"/><g transform="translate(178.0,97.0) rotate(-160.0)" opacity="1.0"><path d="M0,0 C6.7,-7.0 18.7,-5.5 24.0,0 C18.7,5.5 6.7,7.0 0,0 Z" fill="#71896C"/><path d="M1.4,0 L19.7,0" stroke="#5E7458" stroke-width="0.6" stroke-linecap="round" opacity=".35"/></g><g transform="translate(178.0,97.0) rotate(-135.0)" opacity="1.0"><path d="M0,0 C6.7,-7.0 18.7,-5.5 24.0,0 C18.7,5.5 6.7,7.0 0,0 Z" fill="#8FA77F"/><path d="M1.4,0 L19.7,0" stroke="#5E7458" stroke-width="0.6" stroke-linecap="round" opacity=".35"/></g><g transform="translate(178.0,97.0) rotate(-112.0)" opacity="1.0"><path d="M0,0 C8.4,-7.0 23.4,-5.5 30.0,0 C23.4,5.5 8.4,7.0 0,0 Z" fill="#AFC2A2"/><path d="M1.8,0 L24.6,0" stroke="#5E7458" stroke-width="0.6" stroke-linecap="round" opacity=".35"/></g><g transform="translate(178.0,97.0) rotate(-90.0)" opacity="1.0"><path d="M0,0 C8.4,-7.0 23.4,-5.5 30.0,0 C23.4,5.5 8.4,7.0 0,0 Z" fill="#71896C"/><path d="M1.8,0 L24.6,0" stroke="#5E7458" stroke-width="0.6" stroke-linecap="round" opacity=".35"/></g><g transform="translate(178.0,97.0) rotate(-68.0)" opacity="1.0"><path d="M0,0 C8.4,-7.0 23.4,-5.5 30.0,0 C23.4,5.5 8.4,7.0 0,0 Z" fill="#8FA77F"/><path d="M1.8,0 L24.6,0" stroke="#5E7458" stroke-width="0.6" stroke-linecap="round" opacity=".35"/></g><g transform="translate(178.0,97.0) rotate(-45.0)" opacity="1.0"><path d="M0,0 C6.7,-7.0 18.7,-5.5 24.0,0 C18.7,5.5 6.7,7.0 0,0 Z" fill="#AFC2A2"/><path d="M1.4,0 L19.7,0" stroke="#5E7458" stroke-width="0.6" stroke-linecap="round" opacity=".35"/></g><g transform="translate(178.0,97.0) rotate(-22.0)" opacity="1.0"><path d="M0,0 C6.7,-7.0 18.7,-5.5 24.0,0 C18.7,5.5 6.7,7.0 0,0 Z" fill="#71896C"/><path d="M1.4,0 L19.7,0" stroke="#5E7458" stroke-width="0.6" stroke-linecap="round" opacity=".35"/></g><path d="M262 104 L302 104 L298 131 L266 131 Z" fill="#C77D59"/><rect x="259" y="100" width="46" height="7" rx="2" fill="#B06C4B"/><path d="M282,101 C280,70 286,40 276,4" fill="none" stroke="#5E7458" stroke-width="1.7" stroke-linecap="round"/><g transform="translate(281.6,89.9) rotate(-146.5)" opacity="1.0"><path d="M0,0 C6.4,-7.8 17.9,-6.1 22.9,0 C17.9,6.1 6.4,7.8 0,0 Z" fill="#71896C"/><path d="M1.4,0 L18.8,0" stroke="#5E7458" stroke-width="0.6" stroke-linecap="round" opacity=".35"/></g><g transform="translate(281.6,82.5) rotate(-32.9)" opacity="1.0"><path d="M0,0 C6.4,-7.7 17.7,-6.0 22.7,0 C17.7,6.0 6.4,7.7 0,0 Z" fill="#8FA77F"/><path d="M1.4,0 L18.7,0" stroke="#5E7458" stroke-width="0.6" stroke-linecap="round" opacity=".35"/></g><g transform="translate(281.7,75.0) rotate(-136.9)" opacity="1.0"><path d="M0,0 C6.5,-7.9 18.0,-6.1 23.1,0 C18.0,6.1 6.5,7.9 0,0 Z" fill="#71896C"/><path d="M1.4,0 L19.0,0" stroke="#5E7458" stroke-width="0.6" stroke-linecap="round" opacity=".35"/></g><g transform="translate(281.8,67.6) rotate(-28.4)" opacity="1.0"><path d="M0,0 C5.4,-6.5 15.0,-5.1 19.2,0 C15.0,5.1 5.4,6.5 0,0 Z" fill="#8FA77F"/><path d="M1.2,0 L15.8,0" stroke="#5E7458" stroke-width="0.6" stroke-linecap="round" opacity=".35"/></g><g transform="translate(282.0,60.1) rotate(-140.0)" opacity="1.0"><path d="M0,0 C5.5,-6.6 15.2,-5.2 19.5,0 C15.2,5.2 5.5,6.6 0,0 Z" fill="#71896C"/><path d="M1.2,0 L16.0,0" stroke="#5E7458" stroke-width="0.6" stroke-linecap="round" opacity=".35"/></g><g transform="translate(282.0,52.5) rotate(-35.8)" opacity="1.0"><path d="M0,0 C6.1,-7.4 17.1,-5.8 21.9,0 C17.1,5.8 6.1,7.4 0,0 Z" fill="#8FA77F"/><path d="M1.3,0 L17.9,0" stroke="#5E7458" stroke-width="0.6" stroke-linecap="round" opacity=".35"/></g><g transform="translate(281.9,44.8) rotate(-146.5)" opacity="1.0"><path d="M0,0 C5.7,-6.9 15.8,-5.4 20.2,0 C15.8,5.4 5.7,6.9 0,0 Z" fill="#71896C"/><path d="M1.2,0 L16.6,0" stroke="#5E7458" stroke-width="0.6" stroke-linecap="round" opacity=".35"/></g><g transform="translate(281.5,36.9) rotate(-44.4)" opacity="1.0"><path d="M0,0 C5.2,-6.3 14.4,-4.9 18.4,0 C14.4,4.9 5.2,6.3 0,0 Z" fill="#8FA77F"/><path d="M1.1,0 L15.1,0" stroke="#5E7458" stroke-width="0.6" stroke-linecap="round" opacity=".35"/></g><g transform="translate(280.8,29.0) rotate(-157.2)" opacity="1.0"><path d="M0,0 C4.9,-5.9 13.6,-4.6 17.4,0 C13.6,4.6 4.9,5.9 0,0 Z" fill="#71896C"/><path d="M1.0,0 L14.3,0" stroke="#5E7458" stroke-width="0.6" stroke-linecap="round" opacity=".35"/></g><g transform="translate(279.7,20.8) rotate(-40.3)" opacity="1.0"><path d="M0,0 C4.5,-5.5 12.6,-4.3 16.1,0 C12.6,4.3 4.5,5.5 0,0 Z" fill="#8FA77F"/><path d="M1.0,0 L13.2,0" stroke="#5E7458" stroke-width="0.6" stroke-linecap="round" opacity=".35"/></g><g transform="translate(278.1,12.5) rotate(-150.2)" opacity="1.0"><path d="M0,0 C4.4,-5.3 12.2,-4.2 15.7,0 C12.2,4.2 4.4,5.3 0,0 Z" fill="#71896C"/><path d="M0.9,0 L12.8,0" stroke="#5E7458" stroke-width="0.6" stroke-linecap="round" opacity=".35"/></g><g transform="translate(276.6,6.2) rotate(-48.2)" opacity="1.0"><path d="M0,0 C4.2,-5.1 11.7,-4.0 15.0,0 C11.7,4.0 4.2,5.1 0,0 Z" fill="#8FA77F"/><path d="M0.9,0 L12.3,0" stroke="#5E7458" stroke-width="0.6" stroke-linecap="round" opacity=".35"/></g><g transform="translate(276.0,4.0) rotate(-105.5)" opacity="1.0"><path d="M0,0 C3.6,-4.4 10.1,-3.4 13.0,0 C10.1,3.4 3.6,4.4 0,0 Z" fill="#71896C"/><path d="M0.8,0 L10.7,0" stroke="#5E7458" stroke-width="0.6" stroke-linecap="round" opacity=".35"/></g><path d="M281,100 C270,82 262,64 266,40" fill="none" stroke="#5E7458" stroke-width="1.2" stroke-linecap="round"/><g transform="translate(273.5,86.4) rotate(-160.4)" opacity="1.0"><path d="M0,0 C4.7,-5.7 13.2,-4.5 16.9,0 C13.2,4.5 4.7,5.7 0,0 Z" fill="#8FA77F"/><path d="M1.0,0 L13.8,0" stroke="#5E7458" stroke-width="0.6" stroke-linecap="round" opacity=".35"/></g><g transform="translate(269.8,78.0) rotate(-67.5)" opacity="1.0"><path d="M0,0 C4.7,-5.7 13.1,-4.5 16.8,0 C13.1,4.5 4.7,5.7 0,0 Z" fill="#AFC2A2"/><path d="M1.0,0 L13.8,0" stroke="#5E7458" stroke-width="0.6" stroke-linecap="round" opacity=".35"/></g><g transform="translate(267.1,69.3) rotate(-152.0)" opacity="1.0"><path d="M0,0 C4.2,-5.1 11.7,-4.0 15.0,0 C11.7,4.0 4.2,5.1 0,0 Z" fill="#8FA77F"/><path d="M0.9,0 L12.3,0" stroke="#5E7458" stroke-width="0.6" stroke-linecap="round" opacity=".35"/></g><g transform="translate(265.4,60.1) rotate(-46.4)" opacity="1.0"><path d="M0,0 C3.4,-4.2 9.5,-3.2 12.2,0 C9.5,3.2 3.4,4.2 0,0 Z" fill="#AFC2A2"/><path d="M0.7,0 L10.0,0" stroke="#5E7458" stroke-width="0.6" stroke-linecap="round" opacity=".35"/></g><g transform="translate(265.0,50.4) rotate(-137.4)" opacity="1.0"><path d="M0,0 C3.1,-3.7 8.6,-2.9 11.0,0 C8.6,2.9 3.1,3.7 0,0 Z" fill="#8FA77F"/><path d="M0.7,0 L9.0,0" stroke="#5E7458" stroke-width="0.6" stroke-linecap="round" opacity=".35"/></g><g transform="translate(265.8,41.4) rotate(-38.1)" opacity="1.0"><path d="M0,0 C2.8,-3.3 7.7,-2.6 9.8,0 C7.7,2.6 2.8,3.3 0,0 Z" fill="#AFC2A2"/><path d="M0.6,0 L8.1,0" stroke="#5E7458" stroke-width="0.6" stroke-linecap="round" opacity=".35"/></g><g transform="translate(266.0,40.0) rotate(-80.5)" opacity="1.0"><path d="M0,0 C2.8,-3.4 7.8,-2.7 10.0,0 C7.8,2.7 2.8,3.4 0,0 Z" fill="#8FA77F"/><path d="M0.6,0 L8.2,0" stroke="#5E7458" stroke-width="0.6" stroke-linecap="round" opacity=".35"/></g><path d="M350,122 C362,150 346,170 330,190" fill="none" stroke="#5E7458" stroke-width="1.2" stroke-linecap="round"/><g transform="translate(353.2,131.7) rotate(26.8)" opacity="1.0"><path d="M0,0 C4.2,-5.0 11.6,-3.9 14.8,0 C11.6,3.9 4.2,5.0 0,0 Z" fill="#71896C"/><path d="M0.9,0 L12.2,0" stroke="#5E7458" stroke-width="0.6" stroke-linecap="round" opacity=".35"/></g><g transform="translate(354.0,145.0) rotate(144.5)" opacity="1.0"><path d="M0,0 C4.2,-5.1 11.7,-4.0 15.0,0 C11.7,4.0 4.2,5.1 0,0 Z" fill="#8FA77F"/><path d="M0.9,0 L12.3,0" stroke="#5E7458" stroke-width="0.6" stroke-linecap="round" opacity=".35"/></g><g transform="translate(351.2,157.1) rotate(58.8)" opacity="1.0"><path d="M0,0 C3.5,-4.2 9.7,-3.3 12.5,0 C9.7,3.3 3.5,4.2 0,0 Z" fill="#71896C"/><path d="M0.7,0 L10.2,0" stroke="#5E7458" stroke-width="0.6" stroke-linecap="round" opacity=".35"/></g><g transform="translate(345.7,168.5) rotate(171.0)" opacity="1.0"><path d="M0,0 C2.9,-3.5 8.1,-2.8 10.4,0 C8.1,2.8 2.9,3.5 0,0 Z" fill="#8FA77F"/><path d="M0.6,0 L8.6,0" stroke="#5E7458" stroke-width="0.6" stroke-linecap="round" opacity=".35"/></g><g transform="translate(338.3,179.4) rotate(72.1)" opacity="1.0"><path d="M0,0 C2.9,-3.5 8.0,-2.7 10.3,0 C8.0,2.7 2.9,3.5 0,0 Z" fill="#71896C"/><path d="M0.6,0 L8.4,0" stroke="#5E7458" stroke-width="0.6" stroke-linecap="round" opacity=".35"/></g><g transform="translate(331.0,188.8) rotate(175.5)" opacity="1.0"><path d="M0,0 C2.2,-2.7 6.2,-2.1 7.9,0 C6.2,2.1 2.2,2.7 0,0 Z" fill="#8FA77F"/><path d="M0.5,0 L6.5,0" stroke="#5E7458" stroke-width="0.6" stroke-linecap="round" opacity=".35"/></g><g transform="translate(330.0,190.0) rotate(128.7)" opacity="1.0"><path d="M0,0 C2.2,-2.7 6.2,-2.1 8.0,0 C6.2,2.1 2.2,2.7 0,0 Z" fill="#71896C"/><path d="M0.5,0 L6.6,0" stroke="#5E7458" stroke-width="0.6" stroke-linecap="round" opacity=".35"/></g></svg>
